<?xml version="1.0" encoding="utf-8"?>
<!-- Generator: Adobe Illustrator 22.1.0, SVG Export Plug-In . SVG Version: 6.00 Build 0)  -->
<svg version="1.1" id="Layer_1" xmlns="http://www.w3.org/2000/svg" xmlns:xlink="http://www.w3.org/1999/xlink" x="0px" y="0px"
	 viewBox="0 0 512 512" style="enable-background:new 0 0 512 512;" xml:space="preserve">
<style type="text/css">
	.st0{fill:url(#SVGID_1_);}
</style>
<linearGradient id="SVGID_1_" gradientUnits="userSpaceOnUse" x1="-14.6351" y1="449.6513" x2="526.6351" y2="137.1487" gradientTransform="matrix(1 0 0 -1 0 514)">
	<stop  offset="0.1462" style="stop-color:#FFFFFF"/>
	<stop  offset="0.8346" style="stop-color:#FFFFFF"/>
	<stop  offset="0.94" style="stop-color:#FFFFFF"/>
</linearGradient>
<path class="st0" d="M512,402.2V39H0v363.2h193.1V443H161v30h189.9v-30h-32.1v-40.8H512z M482,69v228.8h-32v-36.9l-36-5.5
	c-2.2-6.4-4.8-12.7-7.8-18.8l21.6-29.4L358.6,138l-29.4,21.6c-6.1-3-12.4-5.6-18.8-7.8l-5.5-36h-97.8l-5.5,36
	c-6.4,2.2-12.7,4.8-18.8,7.8L153.4,138l-69.2,69.2l21.6,29.4c-3,6.1-5.6,12.4-7.8,18.8l-36,5.5v36.9H30V69H482z M353.3,297.8
	c-5.9-48.4-47.3-86-97.3-86s-91.3,37.6-97.3,86H92v-11.1l29.4-4.5l2.6-9.3c2.9-10.5,7.1-20.7,12.5-30.2l4.8-8.4l-17.6-24l32.7-32.7
	l24,17.6l8.4-4.8c9.5-5.4,19.7-9.6,30.2-12.5l9.3-2.6l4.5-29.4h46.3l4.5,29.4l9.3,2.6c10.5,2.9,20.7,7.1,30.2,12.5l8.4,4.8l24-17.6
	l32.7,32.7l-17.6,24l4.8,8.4c5.4,9.5,9.6,19.7,12.5,30.2l2.6,9.3l29.4,4.5v11.1H353.3z M322.9,297.8H189.1c5.7-31.8,33.5-56,66.9-56
	S317.2,266,322.9,297.8z M30,372.2v-44.4h452v44.4H30z M288.9,443h-65.7v-40.8h65.7V443z"/>
</svg>
