<svg viewBox="0 -39 512 512" xmlns="http://www.w3.org/2000/svg"><path d="m512 363.191406v-363.191406h-512v363.191406h193.128906v40.808594h-32.070312v30h189.882812v-30h-32.070312v-40.808594zm-30-333.191406v228.820312h-32v-36.886718l-36.03125-5.515625c-2.210938-6.410157-4.816406-12.6875-7.796875-18.796875l21.585937-29.386719-69.15625-69.15625-29.386718 21.585937c-6.105469-2.980468-12.386719-5.585937-18.796875-7.796874l-5.515625-36.03125h-97.804688l-5.515625 36.03125c-6.410156 2.210937-12.691406 4.816406-18.796875 7.796874l-29.386718-21.585937-69.15625 69.160156 21.585937 29.386719c-2.980469 6.105469-5.585937 12.382812-7.796875 18.796875l-36.03125 5.515625v36.882812h-32v-228.820312zm-128.738281 228.820312c-5.945313-48.390624-47.292969-85.984374-97.261719-85.984374s-91.320312 37.59375-97.261719 85.984374h-66.738281v-11.128906l29.398438-4.5 2.605468-9.324218c2.933594-10.503907 7.148438-20.664063 12.527344-30.207032l4.753906-8.4375-17.617187-23.984375 32.730469-32.730469 23.984374 17.617188 8.4375-4.757812c9.542969-5.378907 19.707032-9.59375 30.210938-12.527344l9.324219-2.605469 4.5-29.394531h46.289062l4.5 29.394531 9.324219 2.605469c10.503906 2.9375 20.667969 7.148437 30.210938 12.527344l8.4375 4.757812 23.984374-17.617188 32.730469 32.730469-17.617187 23.984375 4.753906 8.4375c5.378906 9.542969 9.59375 19.703125 12.527344 30.207032l2.605468 9.324218 29.398438 4.5v11.128906zm-30.347657 0h-133.828124c5.691406-31.78125 33.519531-55.984374 66.914062-55.984374s61.222656 24.203124 66.914062 55.984374zm-292.914062 74.371094v-44.371094h452v44.371094zm258.871094 70.808594h-65.742188v-40.808594h65.742188zm0 0"/></svg>