<svg fill="#fff" viewBox="0 0 512 512" xmlns="http://www.w3.org/2000/svg"><path d="m97.480469 368.910156h317.039062v-225.820312h-317.039062zm30-30v-24.484375l79.960937-62.949219 88.289063 75.25 19.460937-22.832031-23.226562-19.792969 41.4375-32.625 51.117187 43.570313v43.863281zm257.039062-165.820312v82.539062l-50.363281-42.925781-65.476562 51.550781-60.480469-51.550781-80.714844 63.542969v-103.15625zm0 0"/><path d="m286.621094 209.589844c0 8.285156-6.71875 15-15 15-8.285156 0-15-6.714844-15-15 0-8.28125 6.714844-15 15-15 8.28125 0 15 6.71875 15 15zm0 0"/><path d="m512 101.5v-101.5h-101.5v35.75h-309v-35.75h-101.5v101.5h35.75v309h-35.75v101.5h101.5v-35.75h309v35.75h101.5v-101.5h-35.75v-309zm-71.5-71.5h41.5v41.5h-41.5zm-410.5 0h41.5v41.5h-41.5zm41.5 452h-41.5v-41.5h41.5zm410.5 0h-41.5v-41.5h41.5zm-35.75-71.5h-35.75v35.75h-309v-35.75h-35.75v-309h35.75v-35.75h309v35.75h35.75zm0 0"/></svg>