<svg viewBox="-44 0 512 512" xmlns="http://www.w3.org/2000/svg"><path d="m398.359375 156.5v-156.5h-129.269531v156.5h-24.730469v-74.492188l-74.46875-81.492187-74.472656 81.492187v74.492188h-28.726563v46.535156l-66.691406 124.226563v50.15625h44.460938v103.304687h81.074218v31.277344h30v-31.277344h22.921875v-30h-103.996093v-103.304687h-44.460938v-12.613281l66.6875-124.226563v-24.078125h298.222656v119.6875c0 65.996094-53.691406 119.6875-119.6875 119.6875v30c13.820313 0 27.207032-1.890625 39.921875-5.414062v61.539062h30v-73.492188c47.402344-25.152343 79.765625-75.023437 79.765625-132.320312v-149.6875zm-99.269531-22.625h34.632812v-30h-34.632812v-21.625h34.632812v-30h-34.632812v-22.25h69.269531v126.5h-69.269531zm-84.730469-20.707031v43.332031h-29.472656v-43.332031zm-9.582031-30h-69.78125l34.890625-38.183594zm-79.359375 30h29.472656v43.332031h-29.472656zm0 0"/></svg>