<svg viewBox="0 0 512 512.00001" xmlns="http://www.w3.org/2000/svg"><path d="m502.257812 78.265625c0-13.191406-3.722656-25.804687-10.636718-36.671875l20.378906-20.378906-21.214844-21.214844-20.390625 20.390625c-25.496093-16.15625-59.414062-13.855469-82.492187 6.9375l-185.660156 93.664063-29.652344-29.652344-21.214844 21.214844 22.667969 22.664062-31.945313 16.117188c-31.871094 15.984374-47.183594 52.035156-38.3125 85.210937l-39.851562 20.09375 13.511718 26.789063 162.734376-82.070313 24.625 24.625-17.324219 17.324219 21.210937 21.214844 17.328125-17.328126 24.152344 24.152344-82.0625 162.742188 26.785156 13.511718 20.097657-39.855468c6.269531 1.675781 12.640624 2.488281 18.957031 2.488281 27.121093 0 53.277343-14.949219 66.226562-40.773437l16.132813-31.972657 23.136718 23.136719 21.214844-21.210938-30.125-30.128906 92.613282-183.578125c12.324218-12.820312 19.109374-29.605469 19.109374-47.441406zm-68.523437-38.5c9.863281 0 19.730469 3.753906 27.238281 11.261719 15.019532 15.019531 15.019532 39.457031 0 54.476562-15.019531 15.019532-39.457031 15.023438-54.476562 0-15.019532-15.019531-15.019532-39.457031 0-54.476562 7.507812-7.507813 17.371094-11.261719 27.238281-11.261719zm-68.214844 32.457031c-.894531 10.195313.488281 20.550782 4.132813 30.246094l-123.605469 62.328125-21.46875-21.46875zm-233.941406 150.300782c-2.046875-17.828126 7.03125-35.875 24-44.386719l40.796875-20.582031 21.46875 21.464843zm175.652344 3.460937 18.796875-18.796875-21.214844-21.214844-18.796875 18.796875-17.632813-17.632812 112.984376-56.976563-56.972657 112.984375zm26.144531 129.996094c-8.5 16.945312-26.542969 26.019531-44.371094 23.96875l43.503906-86.261719 21.464844 21.464844zm13.355469-90.5 62.203125-123.359375c7.960937 3.078125 16.378906 4.632812 24.800781 4.632812 1.769531 0 3.539063-.085937 5.304687-.21875l-70.839843 140.417969zm0 0"/><path d="m444.167969 67.832031c-5.765625-5.761719-15.109375-5.761719-20.875 0-5.761719 5.765625-5.761719 15.109375 0 20.871094 5.765625 5.765625 15.109375 5.765625 20.875 0 5.761719-5.761719 5.761719-15.105469 0-20.871094zm0 0"/><path d="m300.246094 481.992188c-71.386719-.003907-140.546875-28.492188-191.144532-79.09375-53.109374-53.105469-81.859374-126.640626-78.882812-201.757813l-29.976562-1.1875c-1.625 40.972656 4.9375 81.085937 19.507812 119.230469 15.085938 39.5 38.007812 74.804687 68.136719 104.929687 30.128906 30.128907 65.429687 53.050781 104.929687 68.136719 34.359375 13.125 70.316406 19.75 107.058594 19.75 4.046875 0 8.105469-.078125 12.171875-.242188l-1.1875-29.976562c-3.546875.140625-7.078125.210938-10.613281.210938zm0 0"/></svg>